<?xml version="1.0" encoding="UTF-8"?>
<svg id="Layer_2" data-name="Layer 2" xmlns="http://www.w3.org/2000/svg" viewBox="0 0 239.38 283.46">
  <defs>
    <style>
      .cls-1 {
        fill: #FFC9C9;
      }
    </style>
  </defs>
  <g id="Layer_1-2" data-name="Layer 1">
    <g>
      <path class="cls-1" d="M230.8,237.76l-11.64-6.65c-3.19-1.82-6.02-4.18-8.88-6.42-5.12-3.99-7.51-9.91-7.38-16.29.12-6.12.16-11.95-.52-18.01-.84-7.53-2.69-14.48-4.19-21.89l-6.38-31.37c-1.09-5.37-2.41-10.35-4.43-15.38-4.03-10.02-12.44-14.51-22.54-16.99l-14.73-3.62c-3.7-.91-11.84-3.14-11.61-7.77,12.13-.12,23.39-6.26,29.5-16.66,3.65-6.21,3.73-13.46.71-19.84-2.84-6-6.5-10.69-8.84-16.87-3.47-9.14-2.93-17.4-10.47-26.94C140.39,1.69,126.1-1.47,112.23.58c-11.19,1.66-20.67,8.24-25.8,18.27-5.45,10.65-3.67,16.65-9.41,26.86l-5.63,10.02c-4.16,7.39-3.46,16.08,1.47,22.99,6.44,9.02,16.91,14.74,28.29,14.56-.62,6.21-10.47,7.96-15.71,9.97l2.88,2.7c3.81-1.18,7.22-2.39,10.6-4.21,5.63-3.05,5.92-7.94,6.66-14.16,10.47,8.03,17.51,8.36,28.23.09.81,6.42,1.12,11.24,7.69,14.33l-28.28,18.65c.23-2.58.17-4.81-1.46-6.51-.42-.43-1.72-.9-2.27-.74-.55.16-1.55.76-1.93,1.3l-6.01,8.53-6.45-6.78c-1.84,1.16-3.26,2.48-4.77,4.33l7.48,8.52c-.36.88-.94,2.38-1.65,2.93-7.4,5.77-14.56,10.91-19.95,18.66l-.69-9.97c-1.98,5.01-3.14,9.85-4.47,14.97l-5.43,20.89c-6.33,1.74-14.51,5.01-16.18,11.47,4.69-3.73,9.22-6.11,14.61-7.51,11.15-2.9,20.81-5.66,30.38-12.05,2.42-1.62,3.92-3.9,3.72-6.88-.32-4.62-.87-9.06-1.76-13.58-.41-2.11-.42-4.19.25-6.23.78-2.35.99-4.99,2.01-7.24,1.4-3.12,3.4-5.83,5.13-8.94,2.8,2.34-.63,6.91-1.56,10.29-.43,1.55-.32,3.46-.51,5.11-.21,1.91.75,3.88,1.62,5.44,0,0-.7-4.48,1.6-10.07,1.14-2.78,2.32-5.22,3.8-8.01,8.82.7,5.52.29,13.45,4.74-3.44,3.71-6.85-2.42-12.53-.26-2.21.84-3.22,3.9-2.74,6.1,8.27,9.07,16.65,17.7,25.45,26.22,1.46,1.42,2.9,2.38,4.86,3.54,1.83-.37-4.17-8.02-4.48-8.38l-20.97-24.91c1.35-.63,3.01-.09,3.9,1.02l2.18,2.85c.55-2.07,2.83-3.36,4.22-2.74l-.65,6.63c5.19,6.06,10.1,11.8,14.98,18.22,1.71,2.25,4.77,6.86,2.53,8.8-2.24,1.94-7.06-2.24-8.76-3.91l-10.37-10.24c-.47,4.63-1.94,8.26-4.94,11.61-6.6,7.4-13.96,13.84-21.84,19.98-12.33,9.61-27.99,18.8-43.63,20.76-7.65.96-9.05-10.2-8.86-15.65.2-5.62,1.11-10.93,2.35-16.46,2.46-11.01,4.19-21.83,6.32-32.89l1.83-9.49c.97-5.03,2.93-9.71,5.88-13.92,4.68-6.66,11.64-8.81,19.33-10.89l-4.2-2.44c-7.63,2.1-14.61,5.77-18.92,12.75-5.8,9.4-6.09,17.38-8,27.64l-3.46,18.58c-2.37,12.75-7.54,27.65-2.38,39.84,1.79,4.24,5.53,6.64,10.19,6.31,9.84-.69,22.26-6.17,31.29-11.52.58,2.51-.1,5.23-1.3,7.51l-4.3,8.16c-.35.67-1.35,1.46-2.11,1.62l-14.72,3.23c-14.88,3.27-35.67,7.84-48.51,15.6C3.34,240.53-.31,247.08.02,254.59c.47,10.46,7.46,18.81,17.37,21.81,7.61,2.31,15.19,3.34,23.23,3.49,8.22.18,16.03-.23,24.26-1.02,18.5-1.76,36.55-4.84,54.44-9.61,14.88,4.37,29.49,8.24,44.59,11.15,8.73,1.68,17.03,2.88,25.91,3.04,12.66.28,24.56-2.78,35.64-8.68,4.22-2.25,7.97-4.73,10.64-8.75,5.42-8.17,4.42-22.71-5.3-28.26ZM125.6,88.91c-4.04,2.02-8.12,1.89-11.91-.13-8.33-4.46-15.15-12.11-17.3-21.6-1.16-5.13-1.75-10.24-1.88-15.43,2.46-3.1,3.82-6.31,4.58-10.02,1.11-5.4,2.37-11.97,6.68-15.64,5.86-5,13.7-6.23,20.94-3.99,6.03,1.87,10.46,6.24,11.99,12.43l2.46,9.95c.68,2.75,2.36,5.04,3.9,7.47-.4,8.69-1.38,18.97-6.77,26.06-3.39,4.46-7.55,8.34-12.68,10.91ZM69.56,175.72l4.19-16.26,3.73,13.93-7.92,2.33ZM107.4,125.95l-2.05-2.91,4.53-6.61c1.72,2.76-.85,6.95-2.48,9.52ZM162.39,143.01c4.09,9.56,4.58,20.03,2.55,30.2-.44,2.2-.62,4.16-.13,6.32.97,4.22,3.74,15.9,1.96,19.47l-7.24,8.21c-6.04-17.05,4.29-28.26,4.16-48.69-.03-5.25-.87-10.1-1.29-15.51ZM147.67,201c1.79-.1,3.49,2.34,2.71,3.96-.41.83-1.8,1.5-2.97,2.22l-2.9-4.29c.88-.73,2.13-1.82,3.15-1.88ZM142.52,204.31l2.87,4.17-12.12,8.15-8.99-.08,18.24-12.24ZM113.38,224.3l5.06,1.73-4.07,2.65c-1.01-.74-2.24-2.01-2.98-3.15.14-.7,1.37-1.45,1.99-1.24ZM104.38,223.8l2.12-8.02c1.55.52,2.6,2.41,2.47,4.18l-.44,5.82,4.06,5.31c8.59,1.14,9.77,1.87,17.37-2.86-4.87-6.68-17.34-2.96-17.83-9.91,2.49-.21,4.85-.05,7.21.42,10.37,2.07,11.14-1.77,21.57,3.63,2.49,1.29,4.99,1.74,7.68.14l3.26-1.95c4.94-.21,9.63,4.93,13.33,8.34-5.17,3.06-9.94,5.72-15.44,7.51-3.28,1.07-8.71-1.82-15.47-1.11-6.5.68-6.7,6.25-13.29,3.82l-9.38-3.46c-3.47-1.28-3.85-3.59-6.65-8-.74-1.17-.92-2.52-.57-3.88ZM105.84,234.39l-5.14,3.42c-.5.33-4.61,1.79-4.86.58-.05-.25-.03-.81.13-1.06,2.54-3.99,3.49-4.14,7.65-6.75l2.22,3.81ZM94.11,227.58c2.46.12,4.47.6,6.78,1.92l-3.93,2.76-6.81-3.02c1.21-1,2.54-1.47,3.96-1.67ZM71.1,240.92c-6.04-1.25-11.89-1.18-18.02-.3-.93.13-2.61-.22-2.93-1.01-.81-1.99.52-3.94,2.33-4.7,4.03-1.68,7.05.26,10.87-2.34,4.96-3.37,10.94-3.86,16.55-1.54,4.82,1.99,9.55,3.53,15.01,3.47l-4.8,8,8.49-1.52c1.92-.34,3.64-1.34,5.43-2.37,5.96,3.77,12.82,5.16,19.98,4.58.61.69-.31,2.03-1.3,2.22-10.7,2.09-25.61.86-36.38-1.37l-15.22-3.15ZM192.32,247.6c-2.39,1.9-7.79-2.44-17.52.35-4.06,1.16-7.86,2.44-11.89,3.94-13.03,4.88-25.95,8.93-39.58,12.6-8.22,2.21-15.78,4.25-24.02,5.86,3.87-4.37,6.5-8.93,8.98-14.04,1.07-2.21,2.44-4.88,4.48-6.21,4.41-1.01,13.37.2,14.84-4.94,1.18-4.12,4.98-7.02,9.4-6.6,8.15.77,12.23,3.39,21.16.49l7.73-2.51c4.89-1.59,9.93-.79,14.07,2.18,4.66,3.35,8.38.28,11.85,4,1.07,1.15,2.05,3.65.5,4.88Z"/>
      <path class="cls-1" d="M79.73,107.32l9.24,11.69,4.5-4.34-10.57-10.3c-.18-10.05-8.09-6.64-13.25-14.2-1.45,7.25,2.08,16.46,10.08,17.14Z"/>
    </g>
  </g>
</svg>